HIERARCHY
ROOT Hips
{
	OFFSET 0.000000 0.000000 0.000000
	CHANNELS 6 Xposition Yposition Zposition Zrotation Xrotation Yrotation
	JOINT Spine
	{
		OFFSET 0.000000 10.000000 -1.000000
		CHANNELS 6 Xposition Yposition Zposition Zrotation Xrotation Yrotation
		JOINT Spine1
		{
			OFFSET 0.000000 12.000000 0.500000
			CHANNELS 6 Xposition Yposition Zposition Zrotation Xrotation Yrotation
			JOINT Chest
			{
				OFFSET 0.000000 14.000000 0.500000
				CHANNELS 6 Xposition Yposition Zposition Zrotation Xrotation Yrotation
				JOINT Neck
				{
					OFFSET 0.000000 14.000000 0.000000
					CHANNELS 6 Xposition Yposition Zposition Zrotation Xrotation Yrotation
					JOINT Head
					{
						OFFSET 0.000000 10.000000 1.000000
						CHANNELS 6 Xposition Yposition Zposition Zrotation Xrotation Yrotation
						End Site
						{
							OFFSET 0.000000 12.000000 0.000000
						}
					}
				}
				JOINT LeftShoulder
				{
					OFFSET 8.000000 12.000000 0.000000
					CHANNELS 6 Xposition Yposition Zposition Zrotation Xrotation Yrotation
					JOINT LeftArm
					{
						OFFSET 14.000000 0.000000 0.000000
						CHANNELS 6 Xposition Yposition Zposition Zrotation Xrotation Yrotation
						JOINT LeftForeArm
						{
							OFFSET 27.000000 0.000000 0.000000
							CHANNELS 6 Xposition Yposition Zposition Zrotation Xrotation Yrotation
							JOINT LeftHand
							{
								OFFSET 25.000000 0.000000 0.000000
								CHANNELS 6 Xposition Yposition Zposition Zrotation Xrotation Yrotation
								JOINT LeftThumb1
								{
									OFFSET 3.000000 -1.000000 3.000000
									CHANNELS 6 Xposition Yposition Zposition Zrotation Xrotation Yrotation
									JOINT LeftThumb2
									{
										OFFSET 3.000000 0.000000 2.000000
										CHANNELS 6 Xposition Yposition Zposition Zrotation Xrotation Yrotation
										JOINT LeftThumb3
										{
											OFFSET 3.000000 0.000000 2.000000
											CHANNELS 6 Xposition Yposition Zposition Zrotation Xrotation Yrotation
											End Site
											{
												OFFSET 3.000000 0.000000 2.000000
											}
										}
									}
								}
								JOINT LeftIndex1
								{
									OFFSET 9.000000 0.000000 2.500000
									CHANNELS 6 Xposition Yposition Zposition Zrotation Xrotation Yrotation
									JOINT LeftIndex2
									{
										OFFSET 4.000000 0.000000 0.000000
										CHANNELS 6 Xposition Yposition Zposition Zrotation Xrotation Yrotation
										JOINT LeftIndex3
										{
											OFFSET 4.000000 0.000000 0.000000
											CHANNELS 6 Xposition Yposition Zposition Zrotation Xrotation Yrotation
											End Site
											{
												OFFSET 4.000000 0.000000 0.000000
											}
										}
									}
								}
								JOINT LeftMiddle1
								{
									OFFSET 9.000000 0.000000 0.500000
									CHANNELS 6 Xposition Yposition Zposition Zrotation Xrotation Yrotation
									JOINT LeftMiddle2
									{
										OFFSET 4.500000 0.000000 0.000000
										CHANNELS 6 Xposition Yposition Zposition Zrotation Xrotation Yrotation
										JOINT LeftMiddle3
										{
											OFFSET 4.500000 0.000000 0.000000
											CHANNELS 6 Xposition Yposition Zposition Zrotation Xrotation Yrotation
											End Site
											{
												OFFSET 4.500000 0.000000 0.000000
											}
										}
									}
								}
								JOINT LeftRing1
								{
									OFFSET 8.500000 0.000000 -1.500000
									CHANNELS 6 Xposition Yposition Zposition Zrotation Xrotation Yrotation
									JOINT LeftRing2
									{
										OFFSET 4.000000 0.000000 0.000000
										CHANNELS 6 Xposition Yposition Zposition Zrotation Xrotation Yrotation
										JOINT LeftRing3
										{
											OFFSET 4.000000 0.000000 0.000000
											CHANNELS 6 Xposition Yposition Zposition Zrotation Xrotation Yrotation
											End Site
											{
												OFFSET 4.000000 0.000000 0.000000
											}
										}
									}
								}
								JOINT LeftPinky1
								{
									OFFSET 8.000000 0.000000 -3.500000
									CHANNELS 6 Xposition Yposition Zposition Zrotation Xrotation Yrotation
									JOINT LeftPinky2
									{
										OFFSET 3.000000 0.000000 0.000000
										CHANNELS 6 Xposition Yposition Zposition Zrotation Xrotation Yrotation
										JOINT LeftPinky3
										{
											OFFSET 3.000000 0.000000 0.000000
											CHANNELS 6 Xposition Yposition Zposition Zrotation Xrotation Yrotation
											End Site
											{
												OFFSET 3.000000 0.000000 0.000000
											}
										}
									}
								}
								JOINT LeftHandHelper
								{
									OFFSET 2.000000 -3.000000 0.000000
									CHANNELS 6 Xposition Yposition Zposition Zrotation Xrotation Yrotation
									End Site
									{
										OFFSET 0.000000 -2.000000 0.000000
									}
								}
							}
						}
					}
				}
				JOINT RightShoulder
				{
					OFFSET -8.000000 12.000000 0.000000
					CHANNELS 6 Xposition Yposition Zposition Zrotation Xrotation Yrotation
					JOINT RightArm
					{
						OFFSET -14.000000 0.000000 0.000000
						CHANNELS 6 Xposition Yposition Zposition Zrotation Xrotation Yrotation
						JOINT RightForeArm
						{
							OFFSET -27.000000 0.000000 0.000000
							CHANNELS 6 Xposition Yposition Zposition Zrotation Xrotation Yrotation
							JOINT RightHand
							{
								OFFSET -25.000000 0.000000 0.000000
								CHANNELS 6 Xposition Yposition Zposition Zrotation Xrotation Yrotation
								JOINT RightThumb1
								{
									OFFSET -3.000000 -1.000000 3.000000
									CHANNELS 6 Xposition Yposition Zposition Zrotation Xrotation Yrotation
									JOINT RightThumb2
									{
										OFFSET -3.000000 0.000000 2.000000
										CHANNELS 6 Xposition Yposition Zposition Zrotation Xrotation Yrotation
										JOINT RightThumb3
										{
											OFFSET -3.000000 0.000000 2.000000
											CHANNELS 6 Xposition Yposition Zposition Zrotation Xrotation Yrotation
											End Site
											{
												OFFSET -3.000000 0.000000 2.000000
											}
										}
									}
								}
								JOINT RightIndex1
								{
									OFFSET -9.000000 0.000000 2.500000
									CHANNELS 6 Xposition Yposition Zposition Zrotation Xrotation Yrotation
									JOINT RightIndex2
									{
										OFFSET -4.000000 0.000000 0.000000
										CHANNELS 6 Xposition Yposition Zposition Zrotation Xrotation Yrotation
										JOINT RightIndex3
										{
											OFFSET -4.000000 0.000000 0.000000
											CHANNELS 6 Xposition Yposition Zposition Zrotation Xrotation Yrotation
											End Site
											{
												OFFSET -4.000000 0.000000 0.000000
											}
										}
									}
								}
								JOINT RightMiddle1
								{
									OFFSET -9.000000 0.000000 0.500000
									CHANNELS 6 Xposition Yposition Zposition Zrotation Xrotation Yrotation
									JOINT RightMiddle2
									{
										OFFSET -4.500000 0.000000 0.000000
										CHANNELS 6 Xposition Yposition Zposition Zrotation Xrotation Yrotation
										JOINT RightMiddle3
										{
											OFFSET -4.500000 0.000000 0.000000
											CHANNELS 6 Xposition Yposition Zposition Zrotation Xrotation Yrotation
											End Site
											{
												OFFSET -4.500000 0.000000 0.000000
											}
										}
									}
								}
								JOINT RightRing1
								{
									OFFSET -8.500000 0.000000 -1.500000
									CHANNELS 6 Xposition Yposition Zposition Zrotation Xrotation Yrotation
									JOINT RightRing2
									{
										OFFSET -4.000000 0.000000 0.000000
										CHANNELS 6 Xposition Yposition Zposition Zrotation Xrotation Yrotation
										JOINT RightRing3
										{
											OFFSET -4.000000 0.000000 0.000000
											CHANNELS 6 Xposition Yposition Zposition Zrotation Xrotation Yrotation
											End Site
											{
												OFFSET -4.000000 0.000000 0.000000
											}
										}
									}
								}
								JOINT RightPinky1
								{
									OFFSET -8.000000 0.000000 -3.500000
									CHANNELS 6 Xposition Yposition Zposition Zrotation Xrotation Yrotation
									JOINT RightPinky2
									{
										OFFSET -3.000000 0.000000 0.000000
										CHANNELS 6 Xposition Yposition Zposition Zrotation Xrotation Yrotation
										JOINT RightPinky3
										{
											OFFSET -3.000000 0.000000 0.000000
											CHANNELS 6 Xposition Yposition Zposition Zrotation Xrotation Yrotation
											End Site
											{
												OFFSET -3.000000 0.000000 0.000000
											}
										}
									}
								}
								JOINT RightHandHelper
								{
									OFFSET -2.000000 -3.000000 0.000000
									CHANNELS 6 Xposition Yposition Zposition Zrotation Xrotation Yrotation
									End Site
									{
										OFFSET 0.000000 -2.000000 0.000000
									}
								}
							}
						}
					}
				}
			}
		}
	}
	JOINT LeftUpLeg
	{
		OFFSET 9.000000 -3.000000 0.000000
		CHANNELS 6 Xposition Yposition Zposition Zrotation Xrotation Yrotation
		JOINT LeftLeg
		{
			OFFSET 0.000000 -42.000000 0.000000
			CHANNELS 6 Xposition Yposition Zposition Zrotation Xrotation Yrotation
			JOINT LeftFoot
			{
				OFFSET 0.000000 -41.000000 0.000000
				CHANNELS 6 Xposition Yposition Zposition Zrotation Xrotation Yrotation
				JOINT LeftToeBase
				{
					OFFSET 0.000000 -6.000000 13.000000
					CHANNELS 6 Xposition Yposition Zposition Zrotation Xrotation Yrotation
					End Site
					{
						OFFSET 0.000000 0.000000 7.000000
					}
				}
			}
		}
	}
	JOINT RightUpLeg
	{
		OFFSET -9.000000 -3.000000 0.000000
		CHANNELS 6 Xposition Yposition Zposition Zrotation Xrotation Yrotation
		JOINT RightLeg
		{
			OFFSET 0.000000 -42.000000 0.000000
			CHANNELS 6 Xposition Yposition Zposition Zrotation Xrotation Yrotation
			JOINT RightFoot
			{
				OFFSET 0.000000 -41.000000 0.000000
				CHANNELS 6 Xposition Yposition Zposition Zrotation Xrotation Yrotation
				JOINT RightToeBase
				{
					OFFSET 0.000000 -6.000000 13.000000
					CHANNELS 6 Xposition Yposition Zposition Zrotation Xrotation Yrotation
					End Site
					{
						OFFSET 0.000000 0.000000 7.000000
					}
				}
			}
		}
	}
}
MOTION
Frames: 4
Frame Time: 0.016667
0.000000 95.000000 0.000000 0.000000 0.000000 12.000000 0.000000 10.000000 -1.000000 0.000000 0.000000 0.000000 0.000000 12.000000 0.500000 0.000000 0.000000 0.000000 0.000000 14.000000 0.500000 0.000000 0.000000 0.000000 0.000000 14.000000 0.000000 0.000000 0.000000 0.000000 0.000000 10.000000 1.000000 0.000000 0.000000 0.000000 8.000000 12.000000 0.000000 0.000000 0.000000 0.000000 14.000000 0.000000 0.000000 0.000000 0.000000 0.000000 27.000000 0.000000 0.000000 0.000000 0.000000 0.000000 25.000000 0.000000 0.000000 0.000000 0.000000 0.000000 3.000000 -1.000000 3.000000 0.000000 0.000000 0.000000 3.000000 0.000000 2.000000 0.000000 0.000000 0.000000 3.000000 0.000000 2.000000 0.000000 0.000000 0.000000 9.000000 0.000000 2.500000 0.000000 0.000000 0.000000 4.000000 0.000000 0.000000 0.000000 0.000000 0.000000 4.000000 0.000000 0.000000 0.000000 0.000000 0.000000 9.000000 0.000000 0.500000 0.000000 0.000000 0.000000 4.500000 0.000000 0.000000 0.000000 0.000000 0.000000 4.500000 0.000000 0.000000 0.000000 0.000000 0.000000 8.500000 0.000000 -1.500000 0.000000 0.000000 0.000000 4.000000 0.000000 0.000000 0.000000 0.000000 0.000000 4.000000 0.000000 0.000000 0.000000 0.000000 0.000000 8.000000 0.000000 -3.500000 0.000000 0.000000 0.000000 3.000000 0.000000 0.000000 0.000000 0.000000 0.000000 3.000000 0.000000 0.000000 0.000000 0.000000 0.000000 2.000000 -3.000000 0.000000 0.000000 0.000000 0.000000 -8.000000 12.000000 0.000000 0.000000 0.000000 0.000000 -14.000000 0.000000 0.000000 0.000000 0.000000 0.000000 -27.000000 0.000000 0.000000 0.000000 0.000000 0.000000 -25.000000 0.000000 0.000000 0.000000 0.000000 0.000000 -3.000000 -1.000000 3.000000 0.000000 0.000000 0.000000 -3.000000 0.000000 2.000000 0.000000 0.000000 0.000000 -3.000000 0.000000 2.000000 0.000000 0.000000 0.000000 -9.000000 0.000000 2.500000 0.000000 0.000000 0.000000 -4.000000 0.000000 0.000000 0.000000 0.000000 0.000000 -4.000000 0.000000 0.000000 0.000000 0.000000 0.000000 -9.000000 0.000000 0.500000 0.000000 0.000000 0.000000 -4.500000 0.000000 0.000000 0.000000 0.000000 0.000000 -4.500000 0.000000 0.000000 0.000000 0.000000 0.000000 -8.500000 0.000000 -1.500000 0.000000 0.000000 0.000000 -4.000000 0.000000 0.000000 0.000000 0.000000 0.000000 -4.000000 0.000000 0.000000 0.000000 0.000000 0.000000 -8.000000 0.000000 -3.500000 0.000000 0.000000 0.000000 -3.000000 0.000000 0.000000 0.000000 0.000000 0.000000 -3.000000 0.000000 0.000000 0.000000 0.000000 0.000000 -2.000000 -3.000000 0.000000 0.000000 0.000000 0.000000 9.000000 -3.000000 0.000000 0.000000 0.000000 0.000000 0.000000 -42.000000 0.000000 0.000000 0.000000 0.000000 0.000000 -41.000000 0.000000 0.000000 0.000000 0.000000 0.000000 -6.000000 13.000000 0.000000 0.000000 0.000000 -9.000000 -3.000000 0.000000 0.000000 0.000000 0.000000 0.000000 -42.000000 0.000000 0.000000 0.000000 0.000000 0.000000 -41.000000 0.000000 0.000000 0.000000 0.000000 0.000000 -6.000000 13.000000 0.000000 0.000000 0.000000
0.000000 96.200000 4.000000 0.072517 1.583171 12.061231 0.000000 10.000000 -1.000000 0.044134 -0.069297 2.880827 0.000000 12.000000 0.500000 -0.069668 0.072768 3.077939 0.000000 14.000000 0.500000 -0.070461 -0.095352 3.092430 0.000000 14.000000 0.000000 -0.177192 -0.022972 0.168226 0.000000 10.000000 1.000000 -0.112210 0.118595 0.112375 8.000000 12.000000 0.000000 0.198084 -0.151328 -0.159334 14.000000 0.000000 0.000000 5.909273 -13.830664 0.110003 27.000000 0.000000 0.000000 -0.017361 -14.873549 0.005535 25.000000 0.000000 0.000000 -0.081578 -0.021023 0.179949 3.000000 -1.000000 3.000000 11.959405 0.117016 -0.090743 3.000000 0.000000 2.000000 11.955871 -0.189815 0.132911 3.000000 0.000000 2.000000 11.982922 -0.076185 0.140284 9.000000 0.000000 2.500000 12.049638 0.054642 -0.100376 4.000000 0.000000 0.000000 11.988398 -0.003317 0.090792 4.000000 0.000000 0.000000 11.882054 0.157586 -0.157427 9.000000 0.000000 0.500000 12.123768 0.076227 -0.061761 4.500000 0.000000 0.000000 11.992079 0.174551 0.159512 4.500000 0.000000 0.000000 11.954215 0.016093 -0.036033 8.500000 0.000000 -1.500000 11.881938 0.010258 0.122574 4.000000 0.000000 0.000000 11.877593 0.024704 0.043810 4.000000 0.000000 0.000000 12.130360 0.138060 -0.063983 8.000000 0.000000 -3.500000 12.034219 0.026991 -0.125877 3.000000 0.000000 0.000000 12.121554 -0.122484 -0.081264 3.000000 0.000000 0.000000 11.987931 0.050597 -0.121589 2.000000 -3.000000 0.000000 -0.136698 0.189407 0.153700 -8.000000 12.000000 0.000000 0.137956 -0.033901 -0.158901 -14.000000 0.000000 0.000000 -5.969029 14.199393 -0.015877 -27.000000 0.000000 0.000000 -0.006506 -14.884793 0.023527 -25.000000 0.000000 0.000000 0.198798 0.083398 0.038705 -3.000000 -1.000000 3.000000 -8.098985 0.040777 -0.072094 -3.000000 0.000000 2.000000 -7.860586 0.170340 0.131692 -3.000000 0.000000 2.000000 -7.953481 -0.148095 -0.197593 -9.000000 0.000000 2.500000 -8.180700 0.171174 0.198598 -4.000000 0.000000 0.000000 -8.093948 0.095738 0.060957 -4.000000 0.000000 0.000000 -8.183893 -0.124127 -0.024335 -9.000000 0.000000 0.500000 -7.816128 0.068275 -0.117063 -4.500000 0.000000 0.000000 -8.112843 -0.174323 0.015766 -4.500000 0.000000 0.000000 -8.001862 0.180461 -0.002719 -8.500000 0.000000 -1.500000 -8.011881 -0.097128 -0.066074 -4.000000 0.000000 0.000000 -7.855889 -0.174430 -0.005182 -4.000000 0.000000 0.000000 -7.936046 0.138126 0.105169 -8.000000 0.000000 -3.500000 -8.066317 -0.154417 -0.193096 -3.000000 0.000000 0.000000 -7.822819 -0.199412 0.103737 -3.000000 0.000000 0.000000 -8.146261 -0.045693 0.171506 -2.000000 -3.000000 0.000000 -0.040528 -0.094469 0.170678 9.000000 -3.000000 0.000000 0.021582 17.963839 -0.044557 0.000000 -42.000000 0.000000 0.022435 14.055449 0.027993 0.000000 -41.000000 0.000000 0.170557 -0.027838 -0.148617 0.000000 -6.000000 13.000000 -0.131160 -0.170595 -0.060632 -9.000000 -3.000000 0.000000 0.034749 -18.072465 -0.186951 0.000000 -42.000000 0.000000 0.164692 2.134030 -0.192137 0.000000 -41.000000 0.000000 -0.095852 0.084086 -0.100537 0.000000 -6.000000 13.000000 -0.186622 -0.167527 -0.165435
0.000000 95.000000 8.000000 -0.082915 -0.193324 11.841165 0.000000 10.000000 -1.000000 0.040888 -0.155603 -0.094203 0.000000 12.000000 0.500000 -0.023097 -0.015319 -0.136036 0.000000 14.000000 0.500000 -0.165372 0.143908 0.154763 0.000000 14.000000 0.000000 0.063455 -2.158726 -0.123061 0.000000 10.000000 1.000000 -0.043307 -2.168770 -0.173649 8.000000 12.000000 0.000000 0.147187 -0.071263 0.022513 14.000000 0.000000 0.000000 5.969237 0.060736 0.045180 27.000000 0.000000 0.000000 -0.002230 -10.186985 0.152134 25.000000 0.000000 0.000000 0.126271 -0.111857 -0.087650 3.000000 -1.000000 3.000000 9.953044 0.088582 -0.181880 3.000000 0.000000 2.000000 10.197411 -0.101608 0.040629 3.000000 0.000000 2.000000 9.864915 0.020674 0.127904 9.000000 0.000000 2.500000 10.082682 -0.016982 -0.126624 4.000000 0.000000 0.000000 9.943466 0.055772 0.030305 4.000000 0.000000 0.000000 9.882875 -0.027695 0.024040 9.000000 0.000000 0.500000 10.169512 -0.157315 -0.134350 4.500000 0.000000 0.000000 10.088081 -0.075244 0.091604 4.500000 0.000000 0.000000 9.929903 0.173022 -0.065518 8.500000 0.000000 -1.500000 10.090585 -0.062241 -0.136917 4.000000 0.000000 0.000000 10.159015 0.025294 -0.195903 4.000000 0.000000 0.000000 9.819327 0.028422 -0.190354 8.000000 0.000000 -3.500000 9.885381 -0.022323 -0.002334 3.000000 0.000000 0.000000 9.838373 0.015516 0.020039 3.000000 0.000000 0.000000 10.068329 -0.068522 0.010458 2.000000 -3.000000 0.000000 -0.137640 0.143223 0.023528 -8.000000 12.000000 0.000000 0.095747 0.005873 0.199046 -14.000000 0.000000 0.000000 -5.999925 0.076008 -0.163437 -27.000000 0.000000 0.000000 -0.191315 -9.927583 -0.012111 -25.000000 0.000000 0.000000 -0.022195 -0.137838 -0.051014 -3.000000 -1.000000 3.000000 -9.989628 -0.147346 0.160382 -3.000000 0.000000 2.000000 -10.101883 -0.186777 -0.095015 -3.000000 0.000000 2.000000 -9.928960 -0.070579 -0.074231 -9.000000 0.000000 2.500000 -9.839200 -0.144988 0.095132 -4.000000 0.000000 0.000000 -9.996032 -0.066380 -0.104934 -4.000000 0.000000 0.000000 -9.809948 0.001839 0.151098 -9.000000 0.000000 0.500000 -9.886774 -0.063502 0.194398 -4.500000 0.000000 0.000000 -10.128904 0.092042 -0.019695 -4.500000 0.000000 0.000000 -10.054171 0.176530 -0.102773 -8.500000 0.000000 -1.500000 -10.002865 -0.156037 0.021974 -4.000000 0.000000 0.000000 -10.114122 0.043103 0.140494 -4.000000 0.000000 0.000000 -9.847791 -0.008903 -0.049139 -8.000000 0.000000 -3.500000 -10.021389 0.100435 -0.099452 -3.000000 0.000000 0.000000 -9.950842 0.060031 0.051130 -3.000000 0.000000 0.000000 -10.145645 -0.157368 0.026803 -2.000000 -3.000000 0.000000 -0.155694 0.191360 -0.005030 9.000000 -3.000000 0.000000 0.139893 0.010734 0.071387 0.000000 -42.000000 0.000000 -0.050490 7.934624 -0.123330 0.000000 -41.000000 0.000000 -0.063334 -4.004153 0.026387 0.000000 -6.000000 13.000000 0.185846 -0.061769 0.120882 -9.000000 -3.000000 0.000000 -0.008089 0.040889 0.186143 0.000000 -42.000000 0.000000 0.195444 7.925836 0.089137 0.000000 -41.000000 0.000000 -0.036147 -3.899539 0.123091 0.000000 -6.000000 13.000000 -0.151870 0.151891 -0.197205
0.000000 93.800000 12.000000 -0.079087 -1.626774 11.804665 0.000000 10.000000 -1.000000 -0.058046 0.183714 -2.918663 0.000000 12.000000 0.500000 0.082057 -0.101741 -3.060847 0.000000 14.000000 0.500000 -0.174648 0.153207 -3.087589 0.000000 14.000000 0.000000 -0.184852 -0.149201 0.085709 0.000000 10.000000 1.000000 0.140666 -0.161297 0.093812 8.000000 12.000000 0.000000 0.099228 -0.174464 -0.035983 14.000000 0.000000 0.000000 5.827886 13.968347 0.100614 27.000000 0.000000 0.000000 -0.133947 -4.904832 -0.110816 25.000000 0.000000 0.000000 -0.022283 0.130573 0.173101 3.000000 -1.000000 3.000000 7.965630 -0.111397 -0.004550 3.000000 0.000000 2.000000 8.005769 0.180286 0.051547 3.000000 0.000000 2.000000 8.140302 -0.152483 -0.006214 9.000000 0.000000 2.500000 7.949442 0.160762 -0.184676 4.000000 0.000000 0.000000 8.084525 -0.129427 0.156000 4.000000 0.000000 0.000000 8.108393 0.117030 -0.050950 9.000000 0.000000 0.500000 7.988588 0.017421 0.070363 4.500000 0.000000 0.000000 7.874314 0.135618 0.054264 4.500000 0.000000 0.000000 7.822276 0.090154 -0.172403 8.500000 0.000000 -1.500000 7.828261 -0.194379 0.115684 4.000000 0.000000 0.000000 7.878482 0.089250 0.071193 4.000000 0.000000 0.000000 7.845733 0.189365 -0.105401 8.000000 0.000000 -3.500000 8.077282 -0.005669 -0.066999 3.000000 0.000000 0.000000 8.016257 0.077482 0.046850 3.000000 0.000000 0.000000 7.906894 0.067149 0.007671 2.000000 -3.000000 0.000000 -0.046908 -0.005661 -0.194307 -8.000000 12.000000 0.000000 -0.186385 0.003880 -0.097063 -14.000000 0.000000 0.000000 -6.042064 -13.806804 0.025296 -27.000000 0.000000 0.000000 0.194716 -4.863255 -0.149210 -25.000000 0.000000 0.000000 0.125997 0.072303 -0.146529 -3.000000 -1.000000 3.000000 -11.902540 0.095478 0.128643 -3.000000 0.000000 2.000000 -11.810488 0.086526 -0.164893 -3.000000 0.000000 2.000000 -12.138844 0.018050 0.043898 -9.000000 0.000000 2.500000 -12.016063 0.059611 0.151415 -4.000000 0.000000 0.000000 -12.194068 -0.086988 0.062442 -4.000000 0.000000 0.000000 -12.141350 0.007388 0.065214 -9.000000 0.000000 0.500000 -11.909032 0.125275 0.119989 -4.500000 0.000000 0.000000 -11.833054 0.131324 0.028410 -4.500000 0.000000 0.000000 -12.106430 -0.054263 0.003274 -8.500000 0.000000 -1.500000 -12.176040 0.152673 -0.169615 -4.000000 0.000000 0.000000 -11.854459 -0.146360 0.020095 -4.000000 0.000000 0.000000 -12.128623 0.093167 0.059844 -8.000000 0.000000 -3.500000 -11.922678 0.051145 -0.165936 -3.000000 0.000000 0.000000 -12.173379 -0.101390 -0.051098 -3.000000 0.000000 0.000000 -12.029586 -0.187638 -0.085709 -2.000000 -3.000000 0.000000 -0.023003 -0.057738 -0.084419 9.000000 -3.000000 0.000000 -0.033191 -17.854744 -0.032300 0.000000 -42.000000 0.000000 0.128016 2.088458 -0.185528 0.000000 -41.000000 0.000000 0.020885 -0.092753 -0.109439 0.000000 -6.000000 13.000000 -0.186213 0.110198 0.152501 -9.000000 -3.000000 0.000000 0.102414 18.151208 0.184126 0.000000 -42.000000 0.000000 -0.152194 14.091436 -0.032903 0.000000 -41.000000 0.000000 -0.037586 0.027808 0.150273 0.000000 -6.000000 13.000000 0.089715 0.136428 0.062190
